<?xml version="1.0" encoding="iso-8859-1"?>
<!-- Generator: Adobe Illustrator 21.0.0, SVG Export Plug-In . SVG Version: 6.00 Build 0)  -->
<svg version="1.1" id="Capa_1" xmlns="http://www.w3.org/2000/svg" xmlns:xlink="http://www.w3.org/1999/xlink" x="0px" y="0px"
	 viewBox="0 0 617.536 617.536" style="enable-background:new 0 0 617.536 617.536;" xml:space="preserve">
<g>
	<g>
		<g id="filled_outline_26_">
			
				<rect x="73.44" y="22.494" transform="matrix(0.7071 -0.7071 0.7071 0.7071 -57.548 138.939)" style="fill:#2A90DE;" width="131.001" height="232.885"/>
			
				<rect x="169.232" y="215.399" transform="matrix(0.7071 -0.7071 0.7071 0.7071 -107.3086 317.2872)" style="fill:#D0D7DF;" width="320.226" height="145.554"/>
			
				<rect x="160.227" y="395.448" transform="matrix(0.7071 -0.7071 0.7071 0.7071 -243.6876 260.8066)" style="fill:#C3C9D1;" width="65.5" height="58.224"/>
			<path style="fill:#D0D7DF;" d="M164.674,607.249L10.287,452.862l15.439-15.439c42.631-42.631,111.755-42.631,154.387,0l0,0
				c42.631,42.631,42.631,111.755,0,154.387L164.674,607.249z"/>
			<path style="fill:#C3C9D1;" d="M184.158,437.424c-0.669-0.669-1.4-1.235-2.059-1.883c8.265,42.703-5.239,86.724-36.024,117.447
				l-15.809,15.809l38.453,38.453l15.439-15.439c42.631-42.621,42.642-111.735,0.021-154.366
				C184.168,437.434,184.168,437.434,184.158,437.424z"/>
			
				<rect x="413.086" y="362.144" transform="matrix(0.7071 -0.7071 0.7071 0.7071 -198.2371 478.5867)" style="fill:#2A90DE;" width="131.001" height="232.885"/>
			<polygon style="fill:#2379BA;" points="380.815,473.447 514.617,607.249 607.249,514.617 566.079,473.447 			"/>
			<polygon style="fill:#2379BA;" points="51.457,144.089 174.966,267.598 267.598,174.966 236.721,144.089 			"/>
			
				<rect x="211.266" y="316.86" transform="matrix(0.7071 -0.7071 0.7071 0.7071 -124.7152 359.3192)" style="fill:#C3C9D1;" width="320.226" height="26.688"/>
			<circle style="fill:#C3C9D1;" cx="442.57" cy="174.966" r="72.047"/>
			<path style="fill:#A8B2BF;" d="M442.57,216.136c-22.736,0-41.17-18.434-41.17-41.17s18.434-41.17,41.17-41.17
				s41.17,18.434,41.17,41.17S465.306,216.136,442.57,216.136z M442.57,154.382c-11.373,0-20.585,9.212-20.585,20.585
				s9.212,20.585,20.585,20.585s20.585-9.212,20.585-20.585S453.933,154.382,442.57,154.382z"/>
			<g id="outline">
				<path d="M449.847,342.661c-4.014-4.014-10.539-4.014-14.554,0L396.254,381.7l-21.47-21.47l126-126.597
					c32.679-31.773,33.409-84.027,1.637-116.706c-30.898-31.783-81.382-33.471-114.349-3.849
					c-1.266,1.194-130.714,129.685-130.714,129.685l-21.522-21.48l39.039-39.039c4.014-4.014,4.014-10.539,0-14.554L110.196,3.011
					c-4.024-4.014-10.529-4.014-14.554,0L3.011,95.643c-4.014,4.024-4.014,10.529,0,14.554L167.69,274.875
					c4.014,4.014,10.539,4.014,14.553,0l39.039-39.039l21.47,21.47l-85.355,85.355c-4.014,4.014-4.014,10.539,0,14.554
					l23.601,23.601l-26.287,26.287C109.002,385.097,54.38,394.34,18.449,430.147L3.011,445.586c-4.014,4.014-4.014,10.539,0,14.554
					l154.387,154.387c4.014,4.014,10.529,4.014,14.554,0l15.439-15.439c35.807-35.931,45.05-90.553,23.045-136.262l26.287-26.287
					l23.601,23.601c4.014,4.014,10.539,4.014,14.553,0l85.355-85.355l21.47,21.47l-39.039,39.039
					c-4.014,4.014-4.014,10.539,0,14.554L507.34,614.526c4.014,4.014,10.539,4.014,14.554,0l92.632-92.632
					c4.014-4.014,4.014-10.539,0-14.554L449.847,342.661z M211.875,133.797l-31.762,31.762l-26.616-26.616l31.762-31.762
					L211.875,133.797z M170.705,92.627l-31.762,31.762l-26.616-26.616l31.762-31.762L170.705,92.627z M102.919,24.841l26.616,26.616
					L97.773,83.22L71.157,56.603L102.919,24.841z M24.841,102.919l31.762-31.762L83.22,97.773l-31.762,31.762L24.841,102.919z
					 M66.011,144.089l31.762-31.762l26.616,26.616l-31.762,31.762L66.011,144.089z M107.18,185.259l31.762-31.762l26.616,26.616
					l-31.762,31.762L107.18,185.259z M174.966,253.045l-26.616-26.616l31.762-31.762l26.616,26.616L174.966,253.045z
					 M194.666,180.113l31.762-31.762l26.616,26.616l-31.762,31.762L194.666,180.113z M442.57,113.212
					c34.109,0,61.755,27.646,61.755,61.755s-27.646,61.755-61.755,61.755s-61.755-27.646-61.755-61.755
					S408.461,113.212,442.57,113.212z M360.549,168.616c-0.154,2.059-0.319,4.21-0.319,6.35c0.051,45.451,36.888,82.288,82.34,82.34
					c2.141,0,4.251-0.165,6.35-0.319l-68.105,68.105l-88.371-88.371L360.549,168.616z M329.353,302.737l11.178,11.178
					l-26.616,26.616l-11.178-11.178L329.353,302.737z M288.183,314.8l-11.178-11.178l26.616-26.616l11.178,11.178L288.183,314.8z
					 M277.891,251.275l11.178,11.178l-26.616,26.616l-11.178-11.178L277.891,251.275z M172.836,584.534l-8.162,8.162L24.841,452.862
					l8.162-8.162c38.895-38.339,101.494-37.886,139.833,1.009C210.784,484.203,210.784,546.04,172.836,584.534z M200.698,443.455
					l-26.616-26.616l21.47-21.47l26.616,26.616L200.698,443.455z M267.598,438.309l-23.601-23.601l-41.17-41.17l-23.601-23.601
					l16.324-16.324l88.371,88.371L267.598,438.309z M298.476,407.431l-88.371-88.371l26.616-26.616l88.371,88.371L298.476,407.431z
					 M339.645,366.262l-11.178-11.178l26.616-26.616l11.178,11.178L339.645,366.262z M551.526,473.447l-31.762,31.762
					l-26.616-26.616l31.762-31.762L551.526,473.447z M510.356,432.277l-31.762,31.762l-26.616-26.616l31.762-31.762L510.356,432.277
					z M442.57,364.491l26.616,26.616l-31.762,31.762l-26.616-26.616L442.57,364.491z M364.491,442.57l31.762-31.762l26.616,26.616
					l-31.762,31.762L364.491,442.57z M405.661,483.74l31.762-31.762l26.616,26.616l-31.762,31.762L405.661,483.74z M446.831,524.909
					l31.762-31.762l26.616,26.616l-31.762,31.762L446.831,524.909z M514.617,592.695l-26.616-26.616l31.762-31.762l26.616,26.616
					L514.617,592.695z M560.933,546.379l-26.616-26.616l31.762-31.762l26.616,26.616L560.933,546.379z"/>
				<path d="M442.57,216.136c22.736,0,41.17-18.434,41.17-41.17s-18.434-41.17-41.17-41.17s-41.17,18.434-41.17,41.17
					S419.834,216.136,442.57,216.136z M442.57,154.382c11.373,0,20.585,9.212,20.585,20.585s-9.212,20.585-20.585,20.585
					s-20.585-9.212-20.585-20.585S431.197,154.382,442.57,154.382z"/>
			</g>
		</g>
	</g>
</g>
<g>
</g>
<g>
</g>
<g>
</g>
<g>
</g>
<g>
</g>
<g>
</g>
<g>
</g>
<g>
</g>
<g>
</g>
<g>
</g>
<g>
</g>
<g>
</g>
<g>
</g>
<g>
</g>
<g>
</g>
</svg>
