<?xml version="1.0" encoding="UTF-8" standalone="no"?>
<!-- Created with Inkscape (http://www.inkscape.org/) -->

<svg
   xmlns:dc="http://purl.org/dc/elements/1.1/"
   xmlns:cc="http://creativecommons.org/ns#"
   xmlns:rdf="http://www.w3.org/1999/02/22-rdf-syntax-ns#"
   xmlns:svg="http://www.w3.org/2000/svg"
   xmlns="http://www.w3.org/2000/svg"
   xmlns:sodipodi="http://sodipodi.sourceforge.net/DTD/sodipodi-0.dtd"
   xmlns:inkscape="http://www.inkscape.org/namespaces/inkscape"
   width="200mm"
   height="200mm"
   viewBox="0 0 200 200"
   version="1.1"
   id="svg8"
   inkscape:version="0.92.4 (5da689c313, 2019-01-14)"
   sodipodi:docname="space2.svg">
  <defs
     id="defs2" />
  <sodipodi:namedview
     id="base"
     pagecolor="#ffffff"
     bordercolor="#666666"
     borderopacity="1.0"
     inkscape:pageopacity="0.0"
     inkscape:pageshadow="2"
     inkscape:zoom="0.35"
     inkscape:cx="189.10449"
     inkscape:cy="560"
     inkscape:document-units="mm"
     inkscape:current-layer="layer1"
     showgrid="false"
     inkscape:window-width="1920"
     inkscape:window-height="1017"
     inkscape:window-x="-8"
     inkscape:window-y="1072"
     inkscape:window-maximized="1"
     units="mm" />
  <metadata
     id="metadata5">
    <rdf:RDF>
      <cc:Work
         rdf:about="">
        <dc:format>image/svg+xml</dc:format>
        <dc:type
           rdf:resource="http://purl.org/dc/dcmitype/StillImage" />
        <dc:title></dc:title>
      </cc:Work>
    </rdf:RDF>
  </metadata>
  <g
     inkscape:label="Layer 1"
     inkscape:groupmode="layer"
     id="layer1"
     transform="translate(0,-97.000003)">
    <g
       id="g916"
       transform="matrix(0.26458333,0,0,0.26458333,19.224638,115.51917)">
      <g
         id="g845">
	<g
   id="g843">
		<g
   id="filled_outline_26_">
			
				<rect
   id="rect815"
   height="232.88499"
   width="131.00101"
   style="fill:#2a90de"
   transform="matrix(0.7071,-0.7071,0.7071,0.7071,-57.548,138.939)"
   y="22.493999"
   x="73.440002" />


				<rect
   id="rect817"
   height="145.554"
   width="320.22601"
   style="fill:#d0d7df"
   transform="matrix(0.7071,-0.7071,0.7071,0.7071,-107.3086,317.2872)"
   y="215.399"
   x="169.23199" />


				<rect
   id="rect819"
   height="58.223999"
   width="65.5"
   style="fill:#c3c9d1"
   transform="matrix(0.7071,-0.7071,0.7071,0.7071,-243.6876,260.8066)"
   y="395.448"
   x="160.22701" />

			<path
   id="path821"
   d="M 164.674,607.249 10.287,452.862 25.726,437.423 c 42.631,-42.631 111.755,-42.631 154.387,0 v 0 c 42.631,42.631 42.631,111.755 0,154.387 z"
   style="fill:#d0d7df"
   inkscape:connector-curvature="0" />

			<path
   id="path823"
   d="m 184.158,437.424 c -0.669,-0.669 -1.4,-1.235 -2.059,-1.883 8.265,42.703 -5.239,86.724 -36.024,117.447 l -15.809,15.809 38.453,38.453 15.439,-15.439 c 42.631,-42.621 42.642,-111.735 0.021,-154.366 -0.011,-0.011 -0.011,-0.011 -0.021,-0.021 z"
   style="fill:#c3c9d1"
   inkscape:connector-curvature="0" />

			
				<rect
   id="rect825"
   height="232.88499"
   width="131.00101"
   style="fill:#2a90de"
   transform="matrix(0.7071,-0.7071,0.7071,0.7071,-198.2371,478.5867)"
   y="362.14401"
   x="413.086" />

			<polygon
   id="polygon827"
   points="566.079,473.447 380.815,473.447 514.617,607.249 607.249,514.617 "
   style="fill:#2379ba" />

			<polygon
   id="polygon829"
   points="236.721,144.089 51.457,144.089 174.966,267.598 267.598,174.966 "
   style="fill:#2379ba" />

			
				<rect
   id="rect831"
   height="26.688"
   width="320.22601"
   style="fill:#c3c9d1"
   transform="matrix(0.7071,-0.7071,0.7071,0.7071,-124.7152,359.3192)"
   y="316.85999"
   x="211.26601" />

			<circle
   id="circle833"
   r="72.046997"
   cy="174.966"
   cx="442.57001"
   style="fill:#c3c9d1" />

			<path
   id="path835"
   d="m 442.57,216.136 c -22.736,0 -41.17,-18.434 -41.17,-41.17 0,-22.736 18.434,-41.17 41.17,-41.17 22.736,0 41.17,18.434 41.17,41.17 0,22.736 -18.434,41.17 -41.17,41.17 z m 0,-61.754 c -11.373,0 -20.585,9.212 -20.585,20.585 0,11.373 9.212,20.585 20.585,20.585 11.373,0 20.585,-9.212 20.585,-20.585 0,-11.373 -9.222,-20.585 -20.585,-20.585 z"
   style="fill:#a8b2bf"
   inkscape:connector-curvature="0" />

			<g
   id="outline">
				<path
   id="path837"
   d="m 449.847,342.661 c -4.014,-4.014 -10.539,-4.014 -14.554,0 l -39.039,39.039 -21.47,-21.47 126,-126.597 c 32.679,-31.773 33.409,-84.027 1.637,-116.706 -30.898,-31.783 -81.382,-33.471 -114.349,-3.849 -1.266,1.194 -130.714,129.685 -130.714,129.685 l -21.522,-21.48 39.039,-39.039 c 4.014,-4.014 4.014,-10.539 0,-14.554 L 110.196,3.011 c -4.024,-4.014 -10.529,-4.014 -14.554,0 L 3.011,95.643 c -4.014,4.024 -4.014,10.529 0,14.554 L 167.69,274.875 c 4.014,4.014 10.539,4.014 14.553,0 l 39.039,-39.039 21.47,21.47 -85.355,85.355 c -4.014,4.014 -4.014,10.539 0,14.554 l 23.601,23.601 -26.287,26.287 C 109.002,385.097 54.38,394.34 18.449,430.147 L 3.011,445.586 c -4.014,4.014 -4.014,10.539 0,14.554 l 154.387,154.387 c 4.014,4.014 10.529,4.014 14.554,0 l 15.439,-15.439 c 35.807,-35.931 45.05,-90.553 23.045,-136.262 l 26.287,-26.287 23.601,23.601 c 4.014,4.014 10.539,4.014 14.553,0 l 85.355,-85.355 21.47,21.47 -39.039,39.039 c -4.014,4.014 -4.014,10.539 0,14.554 L 507.34,614.526 c 4.014,4.014 10.539,4.014 14.554,0 l 92.632,-92.632 c 4.014,-4.014 4.014,-10.539 0,-14.554 z m -237.972,-208.864 -31.762,31.762 -26.616,-26.616 31.762,-31.762 z m -41.17,-41.17 -31.762,31.762 -26.616,-26.616 31.762,-31.762 z M 102.919,24.841 129.535,51.457 97.773,83.22 71.157,56.603 Z M 24.841,102.919 56.603,71.157 83.22,97.773 51.458,129.535 Z m 41.17,41.17 31.762,-31.762 26.616,26.616 -31.762,31.762 z m 41.169,41.17 31.762,-31.762 26.616,26.616 -31.762,31.762 z m 67.786,67.786 -26.616,-26.616 31.762,-31.762 26.616,26.616 z m 19.7,-72.932 31.762,-31.762 26.616,26.616 -31.762,31.762 z M 442.57,113.212 c 34.109,0 61.755,27.646 61.755,61.755 0,34.109 -27.646,61.755 -61.755,61.755 -34.109,0 -61.755,-27.646 -61.755,-61.755 0,-34.109 27.646,-61.755 61.755,-61.755 z m -82.021,55.404 c -0.154,2.059 -0.319,4.21 -0.319,6.35 0.051,45.451 36.888,82.288 82.34,82.34 2.141,0 4.251,-0.165 6.35,-0.319 l -68.105,68.105 -88.371,-88.371 z m -31.196,134.121 11.178,11.178 -26.616,26.616 -11.178,-11.178 z m -41.17,12.063 -11.178,-11.178 26.616,-26.616 11.178,11.178 z m -10.292,-63.525 11.178,11.178 -26.616,26.616 -11.178,-11.178 z M 172.836,584.534 164.674,592.696 24.841,452.862 33.003,444.7 c 38.895,-38.339 101.494,-37.886 139.833,1.009 37.948,38.494 37.948,100.331 0,138.825 z m 27.862,-141.079 -26.616,-26.616 21.47,-21.47 26.616,26.616 z m 66.9,-5.146 -23.601,-23.601 -41.17,-41.17 -23.601,-23.601 16.324,-16.324 88.371,88.371 z m 30.878,-30.878 -88.371,-88.371 26.616,-26.616 88.371,88.371 z m 41.169,-41.169 -11.178,-11.178 26.616,-26.616 11.178,11.178 z m 211.881,107.185 -31.762,31.762 -26.616,-26.616 31.762,-31.762 z m -41.17,-41.17 -31.762,31.762 -26.616,-26.616 31.762,-31.762 z m -67.786,-67.786 26.616,26.616 -31.762,31.762 -26.616,-26.616 z m -78.079,78.079 31.762,-31.762 26.616,26.616 -31.762,31.762 z m 41.17,41.17 31.762,-31.762 26.616,26.616 -31.762,31.762 z m 41.17,41.169 31.762,-31.762 26.616,26.616 -31.762,31.762 z m 67.786,67.786 -26.616,-26.616 31.762,-31.762 26.616,26.616 z m 46.316,-46.316 -26.616,-26.616 31.762,-31.762 26.616,26.616 z"
   inkscape:connector-curvature="0" />

				<path
   id="path839"
   d="m 442.57,216.136 c 22.736,0 41.17,-18.434 41.17,-41.17 0,-22.736 -18.434,-41.17 -41.17,-41.17 -22.736,0 -41.17,18.434 -41.17,41.17 0,22.736 18.434,41.17 41.17,41.17 z m 0,-61.754 c 11.373,0 20.585,9.212 20.585,20.585 0,11.373 -9.212,20.585 -20.585,20.585 -11.373,0 -20.585,-9.212 -20.585,-20.585 0,-11.373 9.212,-20.585 20.585,-20.585 z"
   inkscape:connector-curvature="0" />

			</g>

		</g>

	</g>

</g>
      <g
         id="g847">
</g>
      <g
         id="g849">
</g>
      <g
         id="g851">
</g>
      <g
         id="g853">
</g>
      <g
         id="g855">
</g>
      <g
         id="g857">
</g>
      <g
         id="g859">
</g>
      <g
         id="g861">
</g>
      <g
         id="g863">
</g>
      <g
         id="g865">
</g>
      <g
         id="g867">
</g>
      <g
         id="g869">
</g>
      <g
         id="g871">
</g>
      <g
         id="g873">
</g>
      <g
         id="g875">
</g>
    </g>
  </g>
</svg>
